<svg viewBox="0 0 32 32" xmlns="http://www.w3.org/2000/svg"><path fill="#25D366" d="M16 2.667c-7.36 0-13.333 5.973-13.333 13.333 0 2.453.667 4.76 1.867 6.76L2.667 29.333l6.747-1.867A13.26 13.26 0 0 0 16 29.333C23.36 29.333 29.333 23.36 29.333 16 29.333 8.64 23.36 2.667 16 2.667Zm0 24c-2.067 0-4.053-.56-5.787-1.573l-.413-.253-4.013 1.107 1.107-3.973-.267-.427A10.58 10.58 0 0 1 5.333 16C5.333 9.76 10.76 4.333 17 4.333c6.24 0 11.667 5.427 11.667 11.667 0 6.24-5.427 11.667-11.667 11.667Zm5.013-7.627c-.28-.14-1.653-.8-1.907-.893-.253-.093-.44-.14-.627.14-.187.28-.72.893-.88 1.08-.16.187-.327.2-.607.06-.28-.14-1.18-.437-2.253-1.4-.833-.747-1.4-1.667-1.567-1.947-.16-.28-.02-.433.12-.573.127-.127.28-.327.42-.487.14-.16.187-.28.28-.467.093-.187.047-.35-.02-.487-.067-.14-.627-1.52-.86-2.087-.227-.547-.46-.473-.627-.48l-.527-.007c-.187 0-.487.067-.74.35s-.973.947-.973 2.307c0 1.36.993 2.68 1.133 2.867.14.187 1.96 3.013 4.747 4.22 2.787 1.207 2.787.8 3.293.747.507-.053 1.653-.673 1.887-1.327.233-.653.233-1.213.16-1.327-.067-.113-.253-.18-.533-.313Z"></path></svg>
